<?xml version="1.0" encoding="iso-8859-1"?>
<!-- Generator: Adobe Illustrator 18.0.0, SVG Export Plug-In . SVG Version: 6.00 Build 0)  -->
<!DOCTYPE svg PUBLIC "-//W3C//DTD SVG 1.1//EN" "http://www.w3.org/Graphics/SVG/1.1/DTD/svg11.dtd">
<svg  version="1.1" id="Capa_1" xmlns="http://www.w3.org/2000/svg" xmlns:xlink="http://www.w3.org/1999/xlink" x="0px" y="0px"
	 viewBox="0 0 64.26 64.26" style="enable-background:new 0 0 64.26 64.26;" xml:space="preserve">
<g>
	<path style="fill:#0000000D;" d="M20.042,32.417c-1.456-0.284-2.93-0.233-4.409-0.222c-1.042,0.008-2.878-0.221-4.033,0.07
		c0.319-3.636,0.056-7.264-0.452-10.877c-0.046-0.326-0.322-0.465-0.608-0.463c-0.034-0.345-0.295-0.688-0.709-0.727
		c-0.752-0.072-5.895,0.621-7.504,0.317c-0.409-2.354-0.777-4.915-0.788-7.36c2.969,0.103,6.046,0.001,8.973-0.503
		c0.212-0.036,0.345-0.194,0.397-0.38c0.005-0.013,0.018-0.017,0.022-0.03c0.606-1.697,0.26-3.759,0.237-5.543
		c-0.02-1.574,0.223-3.336-0.65-4.711c-0.078-0.122-0.25-0.122-0.328,0c-0.872,1.375-0.629,3.137-0.65,4.711
		C9.523,8.192,9.285,9.877,9.56,11.383c-2.701-0.384-5.498-0.47-8.205-0.369c-0.968,0.036-1.241,1.047-0.845,1.665
		c-0.28,1.192-0.527,2.317-0.509,3.637c0.018,1.389,0.184,2.809,0.478,4.178c0.011,0.223,0.06,0.417,0.133,0.593
		c0.016,0.065,0.027,0.131,0.044,0.196c0.112,0.434,0.42,0.625,0.747,0.638c0.382,0.197,0.843,0.3,1.323,0.321
		c2.239,0.094,4.935-0.058,7.132-0.574c0.325,3.805,0.275,7.598,0.236,11.412c-0.005,0.448,0.296,0.665,0.623,0.682
		c0.062,0.043,0.13,0.085,0.221,0.117c0.084,0.03,0.202-0.002,0.261-0.069c0.029-0.033,0.059-0.067,0.088-0.1
		c0.454,0.113,1.086,0.139,0.83,0.118c0.933,0.078,1.878,0.092,2.814,0.115c1.705,0.042,3.43,0.144,5.112-0.168
		C20.716,33.648,20.71,32.547,20.042,32.417z"/>
	<path style="fill:#0000000D;" d="M29.308,12.066c-0.042-0.369-0.284-0.604-0.566-0.703c0.34-0.367,0.188-1.129-0.42-1.062
		c-2.92,0.321-5.766,0.1-8.657,0.18c0.014-1.413-0.038-2.823-0.124-4.235c-0.067-1.097-0.033-2.273-0.263-3.362
		c0.305-0.244,0.293-0.839-0.077-1.027c-0.104-0.053-0.223-0.086-0.332-0.131c-0.183-0.217-0.483-0.321-0.733-0.256
		c-2.099-0.561-4.808-0.194-6.775,0.042c-0.77,0.093-0.81,1.29,0,1.237c1.355-0.088,2.708-0.105,4.063-0.005
		c0.728,0.054,1.445,0.183,2.163,0.249c-0.017,0.356-0.004,0.716,0.021,1.077c-1.285-0.069-2.594,0.172-3.811,0.551
		c-0.261,0.081-0.152,0.487,0.113,0.411c1.249-0.356,2.473-0.434,3.74-0.476c0.069,0.685,0.17,1.37,0.237,2.035
		c0.015,0.147,0.041,0.292,0.057,0.439c-1.222-0.003-2.462,0.157-3.649,0.338c-0.299,0.046-0.169,0.492,0.125,0.452
		c1.205-0.164,2.398-0.184,3.599-0.219c0.085,0.701,0.165,1.402,0.273,2.099c-1.48,0.146-2.94,0.404-4.436,0.458
		c-0.225,0.008-0.227,0.355,0,0.352c1.466-0.02,3.045-0.062,4.5-0.394c0.028,0.172,0.049,0.345,0.079,0.517
		c-0.565,0.338-0.607,1.285,0.168,1.504c1.399,0.395,2.946,0.487,4.501,0.387c-3.341,0.227-6.684,0.562-10.005,0.819
		c-0.173,0.013-0.176,0.281,0,0.272c4.88-0.257,9.83-0.346,14.693-0.881c0.074,0.713,0.149,1.425,0.233,2.134
		c-5.203,0.101-10.498,0.554-15.668,1.112c-0.152,0.016-0.16,0.248,0,0.244c5.21-0.129,10.53-0.384,15.712-0.973
		c0.119,0.985,0.247,1.968,0.383,2.95c-4.899-0.318-9.989,0.22-14.854,0.68c-0.133,0.012-0.137,0.219,0,0.211
		c4.942-0.278,9.966-0.17,14.894-0.605c0.087,0.615,0.161,1.23,0.259,1.844c-5.371-0.049-10.79,0.267-16.146,0.595
		c-0.149,0.009-0.152,0.234,0,0.234c5.387,0.002,10.837-0.012,16.215-0.392c0.031,0.191,0.058,0.383,0.09,0.574
		c-0.128-0.131-0.313-0.215-0.564-0.204c-2.84,0.125-5.671,0.401-8.493,0.746c-0.458,0.056-0.667,0.465-0.619,0.815
		c-0.019,0.038-0.035,0.08-0.051,0.122c-1.852,0.021-3.743,0.36-5.577,0.559c-0.262,0.028-0.27,0.439,0,0.417
		c1.806-0.149,3.691-0.183,5.487-0.492c-0.141,0.783-0.205,1.583-0.208,2.389c-1.509,0.02-3.084,0.303-4.569,0.52
		c-0.19,0.028-0.146,0.349,0.045,0.336c1.482-0.101,3.059-0.162,4.525-0.453c0.007,0.548,0.024,1.095,0.05,1.634
		c-1.527,0.198-3.015,0.384-4.594,0.374c-0.148-0.001-0.192,0.246-0.036,0.267c1.469,0.198,3.134,0.216,4.651-0.096
		c0.019,0.541,0.03,1.113,0.085,1.685c-1.651,0.05-3.363,0.428-4.987,0.658c-0.181,0.026-0.14,0.344,0.044,0.322
		c1.634-0.189,3.373-0.256,4.984-0.625c0.099,0.718,0.292,1.404,0.709,1.951c0.132,0.173,0.427,0.234,0.546,0
		c0.619-1.216,0.346-2.637,0.335-3.975c-0.014-1.688,0.157-3.437-0.031-5.114c2.572-0.065,5.143-0.184,7.703-0.437
		c0.471-0.047,0.722-0.411,0.757-0.781c0.302,0.304,0.991,0.121,0.971-0.398C29.955,18.378,29.665,15.236,29.308,12.066z
		 M27.746,12.313c-1.503,0.031-3.008,0.104-4.515,0.205c1.55-0.11,3.104-0.406,4.523-0.787c-0.034,0.095-0.048,0.207-0.035,0.335
		C27.727,12.149,27.738,12.231,27.746,12.313z"/>
	<path style="fill:#0000000D;" d="M60.19,19.198c0.046-1.538,0.056-3.077,0.072-4.615c0.006-0.559-0.414-0.843-0.85-0.867
		c0.218-0.381,0.111-0.989-0.402-1.124c-7.746-2.042-16.203-2.425-24.158-1.876c-0.622,0.043-0.626,0.931,0,0.97
		c0.088,0.005,0.175,0.015,0.263,0.02c-1.03,2.881-1.464,7.573,0.037,10.228c0.014,0.025,0.036,0.043,0.053,0.065
		c-0.04,0.364,0.171,0.757,0.652,0.772c7.806,0.234,15.699,0.548,23.5,0.084c0.673-0.04,0.88-0.702,0.642-1.148
		C60.324,20.972,60.166,20.02,60.19,19.198z M36.388,21.377c0.17-1.453-0.175-2.944-0.251-4.408
		c-0.089-1.728,0.041-3.466-0.066-5.189c7.572,0.523,15.043,1.483,22.592,2.231c-0.127,0.142-0.218,0.325-0.215,0.571
		c0.002,0.241,0.008,0.482,0.011,0.724c-4.035,0.006-8.07,0.063-12.104,0.117c-0.205,0.003-0.205,0.316,0,0.319
		c4.037,0.054,8.075,0.111,12.113,0.117c0.009,0.553,0.017,1.107,0.026,1.66c-6.143-0.635-12.47-0.551-18.638-0.416
		c-0.166,0.004-0.166,0.255,0,0.258c6.211,0.093,12.436,0.486,18.643,0.496c0.008,0.423,0.008,0.846,0.02,1.269
		c-5.501-0.876-11.667-0.045-17.162,0.146c-0.168,0.006-0.17,0.262,0,0.262c5.702,0.015,11.467-0.335,17.161,0.065
		c-0.012,0.558-0.055,1.146,0.053,1.673C51.203,20.882,43.759,21.154,36.388,21.377z"/>
	<path style="fill:#0000000D;" d="M63.252,54.139c-0.882-1.031-1.677-2.071-2.643-3.048c-0.973-0.985-2.933-2.273-3.521-3.479
		c-0.974-1.995,3.822-5.109,5.584-6.759c0.765,0.235,1.58-0.77,0.894-1.48c-1.629-1.686-3.403-3.294-5.19-4.81
		c-0.168-0.143-0.348-0.177-0.51-0.15c-0.21-0.315-0.601-0.484-1.051-0.212c-1.361,0.825-2.673,1.707-3.982,2.611
		c-1.139,0.786-3.227,2.819-4.555,2.635c-1.264-0.175-2.375-2.239-3.201-3.228c-1.117-1.337-2.238-2.669-3.369-3.994
		c-0.15-0.175-0.349-0.212-0.539-0.175c0.019-0.621-0.85-1.218-1.509-0.683c-1.639,1.332-3.371,2.628-4.841,4.149
		c-0.525,0.542,0.152,1.484,0.823,1.066c1.751-1.09,3.35-2.46,4.955-3.759c0.017,0.065,0.039,0.131,0.084,0.194
		c1.469,2.041,2.941,4.083,4.457,6.089c0.667,0.882,1.382,2.304,2.574,2.585c1.183,0.279,2.217-0.649,3.117-1.239
		c2.323-1.523,4.638-3.098,6.838-4.793c0.014-0.011,0.019-0.025,0.032-0.036c0.569,0.674,1.155,1.339,1.753,1.996
		c-1.111-0.041-2.243,0.03-3.346,0.069c-0.187,0.007-0.187,0.284,0,0.291c1.23,0.043,2.498,0.129,3.731,0.051
		c0.427,0.462,0.854,0.925,1.29,1.377c-2.63-0.518-5.461-0.429-8.074-0.057c-0.184,0.026-0.142,0.342,0.044,0.327
		c2.947-0.233,5.707,0.025,8.616,0.344c0.06,0.06,0.116,0.124,0.176,0.184c-0.701,0.427-1.396,0.888-2.087,1.354
		c-2.893-0.005-5.81,0.18-8.696,0.312c-0.234,0.011-0.237,0.368,0,0.366c2.622-0.026,5.272-0.01,7.9-0.129
		c-0.711,0.501-1.417,1.013-2.09,1.551c-3.182,0.076-6.402,0.48-9.559,0.79c-0.171,0.017-0.178,0.278,0,0.272
		c2.894-0.103,5.85-0.138,8.751-0.405c-0.028,0.024-0.059,0.047-0.087,0.071c-0.572,0.489-1.182,1.04-1.422,1.748
		c-2.329,0.056-4.656,0.31-6.992,0.332c-0.229,0.002-0.229,0.351,0,0.356c2.261,0.049,4.637,0.083,6.893-0.253
		c-0.013,0.136-0.014,0.278,0.003,0.425c0.096,0.833,0.739,1.54,1.402,2.16c-0.018-0.006-0.027-0.021-0.048-0.023
		c-1.977-0.161-4.017,0-6,0.037c-0.211,0.004-0.211,0.324,0,0.328c1.982,0.038,4.023,0.198,6,0.037
		c0.162-0.013,0.211-0.156,0.17-0.269c0.325,0.298,0.648,0.577,0.906,0.837c1.399,1.408,2.829,2.715,4.295,4.01
		c-2.299,0.056-4.573,0.241-6.878,0.186c-0.21-0.005-0.206,0.308,0,0.323c2.322,0.168,4.745,0.23,7.045-0.186
		c0.055-0.01,0.084-0.045,0.101-0.086c0.241,0.212,0.479,0.424,0.722,0.636c-0.275,0.331-0.551,0.656-0.828,0.98
		c-2.007,0.168-4.024,0.573-6.034,0.734c-0.175,0.014-0.181,0.275,0,0.277c1.722,0.013,3.682-0.008,5.467-0.359
		c-0.977,1.114-1.991,2.182-3.137,3.163c-0.037-0.121-0.099-0.241-0.205-0.355c-2.742-2.929-5.723-5.648-8.607-8.435
		c-0.432-0.417-1.024-0.271-1.352,0.174c-1.743,2.367-3.486,4.734-5.229,7.102c-0.046,0.062-0.06,0.122-0.084,0.183
		c-2.183-1.422-4.434-2.805-6.734-4.024c2.352-3.021,4.384-6.109,7.161-8.844c0.355-0.349,0.342-0.939,0-1.291
		c-2.667-2.744-5.455-5.366-8.521-7.662c-0.513-0.384-1.111,0.439-0.673,0.872c2.456,2.435,4.917,4.847,7.261,7.389
		c-2.832,2.647-5.698,5.894-7.113,9.476c-0.249,0.629,0.57,1.206,1.108,0.947c2.28,1.831,4.715,3.528,7.155,5.131
		c0.782,0.514,1.51-0.341,1.336-1.059c0.181-0.04,0.355-0.13,0.49-0.309c1.558-2.057,3.116-4.114,4.673-6.172
		c2.606,2.608,5.176,5.273,7.917,7.735c0.286,0.257,0.61,0.277,0.882,0.17c0.143,0.462,0.68,0.845,1.142,0.502
		c2.181-1.617,4.325-3.501,5.834-5.781C64.552,54.881,63.889,54.12,63.252,54.139z"/>
	<path style="fill:#0000000D;stroke:#0000000D;stroke-width:0;stroke-linecap:round;stroke-linejoin:round;" d="M4.855,52.09
		c0.01,0,0.01-0.015,0-0.015"/>
	<path style="fill:#0000000D;" d="M26.724,48.313c0.188-0.131,0.163-0.472-0.115-0.45c-0.16,0.012-0.319,0.019-0.478,0.031
		c-0.062-0.032-0.118-0.069-0.186-0.098c0.108,0.005,0.216,0.015,0.324,0.02c0.653,0.028,0.8-1.001,0.155-1.146
		c-7.122-1.61-14.746-1.691-22.011-1.505c-0.45,0.012-0.833,0.372-0.833,0.833c0,2.168,0.286,4.119,0.784,6.223
		c0.099,0.421,0.516,0.443,0.773,0.238c0.061,0.029,0.131,0.048,0.212,0.053c4.109,0.236,8.213,0.408,12.329,0.489
		c2.296,0.045,5.399,0.654,7.554-0.304C26.996,51.913,28.009,49.591,26.724,48.313z M24.808,49.585
		c-3.988,0.202-7.978,0.441-11.958,0.745c-0.199,0.015-0.204,0.32,0,0.314c3.853-0.119,7.707-0.301,11.557-0.515
		c-0.771,0.904-1.727,1.3-2.877,1.165c-0.771-0.013-1.541-0.018-2.312-0.017c-1.541-0.009-3.083-0.022-4.623-0.016
		c-3.085,0.012-6.164,0.105-9.247,0.21c-0.03,0.001-0.051,0.013-0.079,0.018c-0.486-3.181-0.745-4.247,2.514-4.683
		c1.871-0.25,4.011,0.06,5.898,0.13c3.931,0.146,7.837,0.62,11.759,0.829c-0.078,0.042-0.142,0.107-0.191,0.185
		c-4.047,0.29-8.082,0.503-12.144,0.584c-0.157,0.003-0.157,0.239,0,0.244c4.011,0.131,8.051,0.033,12.056-0.291
		c0.021,0.086,0.058,0.169,0.118,0.238C25.136,49.045,24.976,49.324,24.808,49.585z"/>
	<path style="fill:#0000000D;" d="M20.53,38.666c-0.648-2.13-3.759-4.596-5.948-2.991c-0.125,0.092-0.17,0.22-0.177,0.346
		c-1.883,0.758-2.999,2.921-2.527,4.977c0.559,2.431,3.162,3.468,5.428,2.907C19.668,43.319,21.268,41.09,20.53,38.666z
		 M14.605,40.516c1.488-0.073,2.982-0.12,4.469-0.218c-0.09,0.385-0.27,0.739-0.525,1.043c-1.327-0.017-2.761,0.062-3.971,0.351
		c-0.082,0.02-0.092,0.164,0,0.176c1.048,0.143,2.236,0.116,3.379,0.019c-0.317,0.214-0.682,0.377-1.076,0.475
		c-1.414,0.351-2.983-0.138-3.462-1.627c-0.509-1.579,0.407-3.522,1.899-4.225c1.289,0.141,2.505,0.518,3.241,1.578
		c-1.317-0.019-2.644,0.046-3.955,0.069c-0.226,0.004-0.227,0.347,0,0.352c1.402,0.025,2.823,0.095,4.231,0.061
		c0.053,0.113,0.112,0.22,0.156,0.346c0.12,0.343,0.144,0.668,0.126,0.983c-1.504,0.057-3.01,0.169-4.512,0.253
		C14.372,40.163,14.37,40.528,14.605,40.516z"/>
	<path style="fill:#0000000D;" d="M21.816,54.623c-1.721-1.71-5.685-1.863-6.894,0.563c-1.81,0.977-2.631,3.387-1.44,5.412
		c1.542,2.625,5.378,3.271,7.772,1.46C23.528,60.338,23.864,56.658,21.816,54.623z M20.713,60.241
		c-1.197,1.464-3.679,1.512-5.079,0.327c-1.427-1.208-1.322-3.107-0.195-4.247c0.108-0.001,0.222-0.028,0.339-0.115
		c0.352-0.261,0.715-0.504,1.086-0.707c0.04-0.011,0.077-0.027,0.118-0.037c0.057-0.014,0.081-0.053,0.119-0.083
		c0.925-0.453,1.91-0.605,2.973,0.024c0.383,0.227,0.668,0.544,0.888,0.902c-1.032,0.112-2.05,0.191-3.105,0.126
		c-0.188-0.012-0.184,0.275,0,0.291c1.082,0.092,2.2,0.098,3.28-0.084c0.168,0.374,0.278,0.778,0.303,1.196
		c-1.434-0.073-2.92,0.042-4.334,0.077c-0.223,0.006-0.224,0.341,0,0.347c1.415,0.035,2.904,0.15,4.34,0.076
		C21.393,59.028,21.146,59.711,20.713,60.241z"/>
	<path style="fill:#0000000D;" d="M20.849,59.383c-1.421,0.049-2.842,0.301-4.25,0.482c-0.205,0.026-0.212,0.35,0,0.328
		c1.427-0.151,2.882-0.236,4.289-0.52C21.052,59.64,21.015,59.377,20.849,59.383z"/>
	<path style="fill:#0000000D;" d="M58.354,51.618c-1.825-0.056-3.677,0.166-5.499,0.279c-0.215,0.013-0.219,0.346,0,0.338
		c1.823-0.067,3.688-0.03,5.499-0.265C58.572,51.942,58.587,51.625,58.354,51.618z"/>
</g>
<g>
</g>
<g>
</g>
<g>
</g>
<g>
</g>
<g>
</g>
<g>
</g>
<g>
</g>
<g>
</g>
<g>
</g>
<g>
</g>
<g>
</g>
<g>
</g>
<g>
</g>
<g>
</g>
<g>
</g>
</svg>
